<?PHPxml version="1.0" standalone="no"?>
<!DOCTYPE svg PUBLIC "-//W3C//DTD SVG 20010904//EN"
 "http://www.w3.org/TR/2001/REC-SVG-20010904/DTD/svg10.dtd">
<svg version="1.0" xmlns="http://www.w3.org/2000/svg"
 width="1058.000000pt" height="1280.000000pt" viewBox="0 0 1058.000000 1280.000000"
 preserveAspectRatio="xMidYMid meet">
<metadata>
Created by potrace 1.15, written by Peter Selinger 2001-2017
</metadata>
<g transform="translate(0.000000,1280.000000) scale(0.100000,-0.100000)"
fill="#ffffff" stroke="none">
<path d="M5125 12131 c-280 -46 -538 -199 -706 -420 -71 -94 -155 -267 -186
-386 -23 -86 -26 -121 -27 -255 -1 -175 12 -252 67 -400 61 -162 168 -314 304
-431 l63 -54 0 -246 0 -246 -137 -35 c-76 -20 -162 -43 -192 -52 -62 -18 -70
-14 -90 40 -7 20 -24 60 -36 89 l-23 52 -67 -9 c-37 -5 -69 -7 -72 -5 -2 3 13
39 34 82 l38 77 -25 17 c-75 49 -145 133 -169 201 -7 19 -21 99 -32 177 -36
256 -75 368 -162 460 -58 61 -111 95 -186 117 -102 30 -112 26 -160 -58 -89
-156 -110 -270 -71 -385 26 -78 60 -128 157 -235 115 -126 153 -224 153 -401
0 -108 4 -115 60 -115 47 0 110 -16 110 -28 0 -4 -14 -15 -30 -24 -17 -10 -30
-25 -30 -37 0 -10 20 -67 44 -124 l44 -106 -216 -140 c-120 -77 -262 -179
-317 -225 l-100 -86 -130 0 -130 0 -45 57 c-208 262 -616 234 -790 -54 -144
-238 -50 -557 199 -677 79 -37 191 -61 252 -53 22 3 39 3 39 0 0 -2 -17 -30
-39 -61 -21 -31 -51 -82 -66 -112 -15 -30 -29 -57 -31 -59 -2 -2 -48 16 -103
39 -96 41 -101 42 -125 27 -14 -9 -37 -33 -52 -52 -15 -20 -30 -32 -34 -28 -4
4 -17 41 -29 81 l-22 73 -37 -8 c-64 -14 -164 -9 -217 11 -64 24 -155 83 -280
181 -121 94 -221 145 -303 152 -116 11 -272 -34 -327 -93 -40 -43 -35 -111 16
-213 86 -172 186 -243 379 -268 188 -24 277 -40 314 -58 20 -10 69 -47 109
-83 39 -35 89 -76 109 -89 l37 -25 66 46 65 47 0 -36 c0 -20 4 -44 9 -54 5 -9
57 -39 115 -65 58 -27 106 -53 106 -58 0 -5 -11 -30 -24 -56 -93 -185 -141
-502 -134 -885 8 -350 58 -638 157 -903 23 -59 39 -110 36 -114 -2 -4 -24 -10
-47 -14 -75 -11 -138 -37 -154 -62 -11 -16 -15 -41 -12 -84 1 -33 2 -60 1 -60
-1 0 -36 15 -77 34 -41 19 -76 32 -79 30 -2 -3 -17 30 -32 73 -61 175 -154
373 -260 559 -128 223 -341 524 -370 524 -34 0 -189 -208 -310 -414 -177 -302
-374 -818 -362 -949 9 -99 86 -140 295 -156 63 -5 97 -12 103 -22 14 -23 10
-74 -10 -120 -11 -24 -25 -72 -32 -106 -15 -72 -12 -79 66 -129 45 -28 52 -38
64 -85 25 -98 119 -376 172 -506 314 -777 841 -1458 1539 -1987 521 -396 1099
-693 1814 -936 268 -90 340 -121 436 -185 78 -52 136 -113 181 -191 39 -70 74
-97 113 -90 40 8 48 17 94 94 69 116 188 212 346 279 33 14 156 57 271 95
1164 387 2065 978 2702 1775 386 483 673 1061 823 1658 30 119 36 133 71 166
49 47 57 79 35 154 -10 33 -20 76 -23 95 l-5 36 147 11 c215 17 253 43 263
172 6 91 -14 174 -85 356 -93 236 -211 457 -378 710 -99 148 -178 251 -208
269 -16 9 -25 4 -58 -34 -200 -225 -429 -656 -565 -1059 -3 -11 -12 -7 -33 13
l-29 28 -59 -39 c-90 -61 -85 -60 -78 -20 4 19 2 44 -4 55 -11 21 -131 76
-215 98 -27 7 -52 17 -56 21 -5 4 7 60 26 123 39 130 75 299 101 475 26 174
26 691 0 855 -21 132 -56 288 -93 408 -14 45 -22 87 -19 92 9 14 58 39 140 71
l70 27 -1 66 c0 36 1 66 3 66 2 0 35 -16 73 -35 38 -19 72 -35 74 -35 3 0 13
14 21 31 41 78 125 142 220 168 22 5 112 19 200 30 231 29 313 58 408 141 62
55 90 105 123 218 l26 93 -28 31 c-63 65 -188 108 -320 108 -126 0 -161 -16
-336 -152 -84 -66 -172 -129 -195 -139 -60 -26 -143 -39 -245 -39 l-88 0 0
-49 c0 -27 -6 -63 -14 -81 l-13 -32 -28 35 -28 35 -48 -14 c-25 -8 -81 -30
-123 -49 -43 -19 -79 -35 -81 -35 -3 0 -27 44 -54 98 l-49 97 87 1 c264 5 471
215 471 478 -1 282 -241 506 -520 483 -127 -11 -264 -84 -340 -182 l-42 -55
-149 0 c-81 0 -150 4 -154 9 -17 29 -277 210 -510 355 -77 49 -141 89 -143 91
-2 2 15 37 37 77 57 103 56 143 -1 193 -24 21 -38 39 -33 42 134 55 140 59
135 89 -3 16 -5 65 -5 109 0 71 4 88 36 155 20 41 82 136 138 210 135 180 175
259 180 361 2 54 -2 93 -14 128 -21 65 -89 169 -116 180 -61 22 -227 -43 -317
-124 -85 -77 -124 -171 -137 -330 -9 -123 -26 -215 -47 -264 -25 -60 -95 -155
-157 -215 l-50 -50 33 -40 c33 -41 56 -79 56 -92 0 -3 -20 -4 -44 -2 l-44 5
-55 -121 c-34 -74 -61 -120 -68 -118 -7 2 -67 18 -133 36 l-121 33 -3 268 -2
268 73 68 c395 363 466 952 171 1396 -146 220 -376 383 -632 450 -76 19 -128
26 -237 28 -77 2 -162 0 -190 -4z m336 -416 c182 -47 351 -186 432 -356 59
-124 72 -181 71 -314 -3 -187 -66 -337 -199 -470 -78 -78 -151 -125 -253 -163
-90 -34 -293 -43 -392 -17 -196 50 -357 180 -445 360 -51 103 -69 183 -69 305
0 188 64 340 199 476 68 68 97 89 176 127 52 25 119 50 149 56 30 6 64 13 75
15 38 9 191 -3 256 -19z m-1241 -3304 c24 -11 49 -17 57 -14 7 3 13 0 13 -7 0
-8 13 -11 40 -8 l40 3 -3 -145 c-2 -129 1 -153 21 -214 49 -144 118 -251 235
-363 l75 -71 -50 -27 c-49 -27 -50 -28 -43 -63 4 -20 18 -58 32 -86 46 -91 55
-124 39 -154 -18 -35 -150 -162 -168 -162 -8 0 -59 18 -113 40 l-99 40 -23
-22 c-12 -11 -25 -29 -29 -40 -3 -10 -10 -18 -16 -18 -6 0 -54 42 -107 93 -77
73 -117 102 -196 144 -154 79 -225 98 -373 97 -93 0 -121 3 -118 12 11 29 16
80 9 90 -10 15 -192 87 -215 86 -10 0 -20 3 -23 7 -6 11 144 245 251 388 85
115 234 278 306 334 30 25 48 30 106 34 38 3 95 13 128 24 79 26 170 26 224 2z
m2340 -11 c49 -11 93 -19 97 -18 25 8 206 -135 329 -260 42 -43 102 -111 133
-153 74 -97 166 -258 155 -269 -5 -5 -63 -32 -129 -61 -66 -28 -124 -55 -128
-59 -4 -4 -3 -19 2 -33 9 -24 8 -27 -12 -31 -279 -58 -394 -100 -550 -203 -37
-25 -100 -76 -139 -114 l-72 -70 -26 30 c-14 18 -35 31 -47 31 -12 0 -59 -16
-104 -36 l-81 -36 -49 48 -49 48 0 103 c0 77 5 115 19 153 19 49 19 50 0 60
-14 8 -19 22 -19 57 0 41 6 53 56 114 121 149 196 327 214 511 18 186 13 173
73 173 29 -1 81 7 117 16 84 23 103 23 210 -1z m938 -1247 c90 -371 101 -607
43 -903 -16 -80 -32 -167 -36 -195 -3 -27 -8 -60 -11 -72 l-4 -22 -53 23 c-48
21 -95 35 -171 51 -23 5 -33 0 -59 -28 l-30 -35 -63 52 c-180 148 -449 242
-671 234 -51 -1 -92 -1 -90 2 33 58 33 61 -1 91 -19 17 -65 39 -115 54 l-84
27 -6 58 c-6 54 -4 81 8 145 3 14 37 37 110 75 60 32 103 60 100 67 -2 6 -7
27 -10 46 l-7 34 94 6 c237 16 451 117 649 305 49 46 89 78 89 69 0 -8 8 -25
19 -38 l18 -23 74 28 c41 15 94 38 119 51 25 13 48 24 51 25 3 0 20 -57 37
-127z m-4070 -46 c59 -46 135 -100 169 -120 130 -79 302 -134 449 -144 84 -6
84 -6 84 -34 0 -54 105 -119 194 -119 l36 0 0 -119 c0 -85 -4 -122 -13 -129
-7 -6 -51 -27 -97 -47 -105 -45 -123 -60 -116 -98 4 -17 1 -29 -7 -32 -6 -2
-73 -9 -147 -15 -287 -24 -428 -77 -586 -220 -53 -48 -70 -58 -111 -63 -26 -3
-90 -22 -142 -42 -52 -19 -98 -32 -102 -28 -13 14 -59 185 -80 298 -26 145
-35 368 -20 520 13 137 55 398 70 437 l10 26 116 -43 116 -43 32 49 c18 27 33
49 35 49 2 0 52 -37 110 -83z m1190 -1163 c40 -36 72 -74 72 -83 0 -10 -16
-52 -35 -94 -38 -81 -53 -137 -39 -137 5 0 18 -7 28 -15 19 -14 16 -18 -51
-87 -81 -85 -129 -156 -189 -282 -74 -157 -88 -252 -67 -434 l9 -73 -65 2 -66
3 -18 -50 c-10 -27 -23 -75 -29 -106 -6 -32 -15 -58 -22 -58 -24 0 -98 51
-246 171 -182 146 -376 331 -470 447 -68 84 -170 245 -170 268 0 7 47 38 104
68 l104 56 -13 44 -13 43 121 6 c146 7 283 40 383 90 94 49 109 60 223 165
l99 92 19 -29 18 -28 115 43 c63 24 117 43 120 44 3 0 38 -30 78 -66z m1468
28 l122 -39 17 41 18 40 86 -90 c96 -101 148 -140 255 -190 118 -54 238 -85
359 -91 l107 -6 -6 -31 c-5 -31 -5 -32 115 -94 67 -35 121 -69 121 -76 0 -39
-211 -318 -344 -455 -61 -62 -158 -151 -215 -197 -134 -108 -318 -237 -331
-232 -6 2 -28 41 -50 88 l-39 85 -49 3 -49 3 14 72 c10 48 13 115 10 202 -3
115 -7 139 -35 213 -41 111 -102 200 -210 304 l-89 88 -2 162 -2 162 38 38
c20 21 37 38 38 38 0 0 55 -17 121 -38z m2358 -919 l17 -51 77 5 c85 6 171
-11 244 -48 24 -12 91 -57 149 -102 l107 -80 -20 -71 c-58 -209 -184 -479
-321 -683 -117 -175 -190 -266 -342 -422 -275 -283 -579 -498 -993 -703 -201
-100 -203 -100 -224 -82 -41 36 -107 136 -114 170 -5 27 -10 33 -24 29 -15 -5
-22 6 -39 57 -12 34 -26 103 -31 153 -6 49 -13 109 -16 131 l-5 42 -79 12
c-44 7 -80 16 -80 21 0 4 16 20 36 35 32 25 35 31 29 63 -4 20 -33 86 -66 148
l-59 111 33 20 c17 10 77 43 132 72 426 227 820 611 1090 1061 52 86 100 169
106 183 16 35 35 33 124 -14 42 -22 85 -40 96 -40 29 0 69 23 103 59 l30 31
11 -27 c7 -16 20 -51 29 -80z m-5942 25 c14 -18 50 -81 82 -140 97 -182 306
-448 493 -629 221 -212 396 -345 631 -476 85 -48 146 -88 144 -95 -2 -7 -24
-59 -49 -115 -51 -115 -50 -118 18 -177 48 -40 53 -35 -64 -72 l-58 -18 8 -36
c4 -19 8 -69 7 -111 0 -66 -5 -86 -36 -150 -38 -81 -172 -269 -191 -269 -24 0
-397 189 -528 268 -278 168 -486 331 -704 554 -158 161 -242 263 -350 423
-131 197 -227 388 -300 597 -33 95 -34 101 -18 114 77 59 174 120 217 137 37
14 85 21 173 25 138 5 126 -3 139 105 4 31 10 57 15 57 4 0 20 -15 36 -34 l28
-34 125 53 c69 29 132 53 141 54 9 1 28 -14 41 -31z m2218 -549 l0 -211 -22 5
c-13 3 -40 9 -61 12 -46 9 -53 19 -33 49 19 29 56 138 56 165 0 12 -17 30 -44
47 l-43 27 46 37 c25 21 55 47 65 59 11 11 23 21 28 21 4 0 8 -95 8 -211z
m1248 97 c-46 -33 -67 -46 -72 -46 -3 0 -6 30 -6 68 l0 67 41 -44 c22 -24 39
-44 37 -45z m-54 -238 c15 -34 14 -36 -4 -41 -18 -5 -20 0 -20 41 0 51 3 51
24 0z m350 -825 c4 -21 27 -81 52 -134 l46 -95 60 8 c34 4 63 6 65 4 2 -2 -9
-31 -26 -65 -17 -33 -31 -65 -31 -71 0 -7 35 -48 79 -94 88 -92 104 -118 120
-196 11 -57 41 -264 41 -286 0 -8 -36 -24 -87 -39 -85 -26 -320 -105 -355
-120 -16 -6 -18 -1 -18 35 0 105 -47 350 -149 775 -28 116 -51 217 -51 225 0
10 35 26 113 51 61 20 117 37 123 38 7 1 15 -16 18 -36z m-1761 -39 c42 -9 77
-22 77 -28 0 -6 -38 -155 -85 -331 -84 -315 -127 -504 -141 -618 -3 -32 -9
-57 -13 -55 -58 27 -170 64 -266 88 -65 17 -123 34 -128 39 -10 10 9 168 28
236 19 66 82 163 156 240 l58 61 -44 67 -44 67 48 0 48 0 57 139 57 139 57
-14 c31 -7 92 -21 135 -30z"/>
</g>
</svg>
