<?PHPxml version="1.0" standalone="no"?>
<!DOCTYPE svg PUBLIC "-//W3C//DTD SVG 20010904//EN"
 "http://www.w3.org/TR/2001/REC-SVG-20010904/DTD/svg10.dtd">
<svg version="1.0" xmlns="http://www.w3.org/2000/svg"
 width="1092.000000pt" height="1280.000000pt" viewBox="0 0 1092.000000 1280.000000"
 preserveAspectRatio="xMidYMid meet">
<metadata>
Created by potrace 1.15, written by Peter Selinger 2001-2017
</metadata>
<g transform="translate(0.000000,1280.000000) scale(0.100000,-0.100000)"
fill="#ffffff" stroke="none">
<path d="M6678 7750 l-3 -5035 -355 -5 -355 -5 -53 -29 c-59 -33 -116 -91
-155 -157 -32 -54 -74 -180 -79 -234 l-3 -39 225 -27 c124 -15 619 -75 1100
-133 481 -59 879 -106 884 -106 17 0 -1 280 -23 358 -44 152 -132 282 -230
340 l-46 27 -350 5 -350 5 -3 4740 -2 4740 -99 295 -99 295 -4 -5035z"/>
<path d="M7008 11504 c-2 -245 -2 -447 0 -448 5 -6 305 46 427 74 549 126
1090 378 1575 733 52 38 99 73 104 78 6 5 -442 9 -1047 9 l-1057 0 -2 -446z"/>
<path d="M6465 10167 c-150 -150 -316 -278 -795 -612 -473 -331 -606 -433
-774 -595 -91 -88 -213 -227 -204 -235 10 -9 159 -57 273 -88 176 -49 329 -82
883 -192 402 -80 613 -126 695 -151 16 -5 17 46 17 975 0 540 -3 980 -7 979
-5 -1 -44 -37 -88 -81z"/>
<path d="M4507 8454 c-195 -301 -396 -636 -561 -939 -91 -166 -296 -570 -296
-583 0 -20 295 -141 553 -227 242 -80 545 -165 947 -265 233 -58 1378 -320
1399 -320 8 0 11 298 11 995 0 547 -1 995 -3 995 -2 0 -64 15 -138 34 -74 19
-258 59 -409 90 -804 166 -1066 227 -1267 296 -65 23 -126 44 -135 47 -13 4
-36 -24 -101 -123z"/>
<path d="M7008 7296 l2 -534 63 15 c34 8 160 37 280 64 257 57 448 106 459
117 22 22 -167 237 -434 496 -117 113 -247 244 -288 291 -41 47 -77 85 -80 85
-3 0 -4 -240 -2 -534z"/>
<path d="M7835 6785 c-38 -13 -167 -47 -285 -76 -118 -28 -286 -69 -374 -90
-87 -21 -160 -40 -162 -42 -2 -2 -4 -449 -4 -993 0 -789 2 -989 12 -987 106
15 903 211 1153 283 191 55 543 174 558 189 24 24 -229 634 -440 1055 -146
291 -367 688 -383 685 -3 -1 -36 -12 -75 -24z"/>
<path d="M3471 6552 c-121 -274 -205 -481 -304 -747 -80 -216 -191 -544 -186
-549 23 -19 240 -131 369 -191 549 -256 1275 -494 2330 -764 285 -73 855 -211
871 -211 5 0 8 366 7 922 l-3 922 -210 48 c-115 26 -349 80 -520 119 -1125
257 -1734 437 -2177 642 l-76 36 -101 -227z"/>
<path d="M2927 5093 c-7 -11 -109 -369 -146 -513 -74 -285 -166 -710 -217
-1008 -21 -127 -64 -404 -64 -418 0 -2 914 -4 2030 -4 l2030 0 -2 377 -3 377
-90 22 c-49 12 -223 54 -385 93 -1454 354 -2404 674 -3062 1034 -47 26 -89 44
-91 40z"/>
<path d="M8720 4879 c-296 -116 -796 -258 -1428 -404 -150 -35 -275 -65 -277
-67 -3 -2 -5 -285 -5 -629 l-1 -624 1091 -3 1090 -2 0 24 c0 38 -37 288 -71
474 -53 296 -127 616 -210 907 -37 131 -109 356 -112 354 -1 0 -36 -13 -77
-30z"/>
<path d="M241 2476 c562 -193 975 -392 1121 -541 26 -26 50 -56 53 -66 5 -13
16 -19 37 -19 17 0 554 -34 1194 -75 640 -41 1687 -109 2327 -150 3212 -206
3741 -240 4597 -295 508 -33 927 -57 930 -52 4 4 19 68 34 142 37 176 97 394
141 511 39 102 74 160 171 286 35 45 64 84 64 87 0 2 -37 -14 -82 -36 -130
-63 -242 -140 -288 -199 -53 -67 -136 -236 -180 -367 -20 -59 -40 -102 -48
-102 -11 0 -1841 169 -2492 230 -118 11 -309 29 -425 40 -115 11 -1036 96
-2045 190 -1009 94 -1932 179 -2050 190 -118 11 -309 29 -425 40 -1073 101
-2802 260 -2823 260 -14 0 71 -33 189 -74z"/>
<path d="M1550 1570 c0 -18 145 -312 223 -453 143 -255 275 -443 399 -564 156
-152 496 -331 940 -494 l162 -59 3040 0 3040 0 132 100 c342 259 685 573 821
750 78 102 165 271 149 287 -3 3 -175 13 -383 24 -208 10 -470 23 -583 29
-113 5 -1037 50 -2055 100 -1017 50 -1942 95 -2055 100 -113 6 -293 15 -400
20 -107 5 -890 43 -1740 84 -850 41 -1578 77 -1617 80 -46 4 -73 2 -73 -4z"/>
</g>
</svg>
